<svg width="20" height="20" viewBox="0 0 20 20" fill="none" xmlns="http://www.w3.org/2000/svg">
<path d="M15.0002 6.66668H14.1668V5.00001C14.1668 2.70001 12.3002 0.833344 10.0002 0.833344C7.70016 0.833344 5.8335 2.70001 5.8335 5.00001V6.66668H5.00016C4.0835 6.66668 3.3335 7.41668 3.3335 8.33334V16.6667C3.3335 17.5833 4.0835 18.3333 5.00016 18.3333H15.0002C15.9168 18.3333 16.6668 17.5833 16.6668 16.6667V8.33334C16.6668 7.41668 15.9168 6.66668 15.0002 6.66668ZM10.0002 14.1667C9.0835 14.1667 8.3335 13.4167 8.3335 12.5C8.3335 11.5833 9.0835 10.8333 10.0002 10.8333C10.9168 10.8333 11.6668 11.5833 11.6668 12.5C11.6668 13.4167 10.9168 14.1667 10.0002 14.1667ZM12.5835 6.66668H7.41683V5.00001C7.41683 3.57501 8.57516 2.41668 10.0002 2.41668C11.4252 2.41668 12.5835 3.57501 12.5835 5.00001V6.66668Z" fill="#A5B0C1"/>
</svg>
